<?xml version="1.0" encoding="UTF-8" standalone="no"?>
<!DOCTYPE svg PUBLIC "-//W3C//DTD SVG 1.1//EN" "http://www.w3.org/Graphics/SVG/1.1/DTD/svg11.dtd">
<svg width="100%" height="100%" viewBox="0 0 812 440" version="1.1" xmlns="http://www.w3.org/2000/svg" xmlns:xlink="http://www.w3.org/1999/xlink" xml:space="preserve" xmlns:serif="http://www.serif.com/" style="fill-rule:evenodd;clip-rule:evenodd;stroke-linejoin:round;stroke-miterlimit:2;">
    <g transform="matrix(1,0,0,1,-132.613,-265.327)">
        <g transform="matrix(1,0,0,1,-2.87489,-0.958296)">
            <g transform="matrix(0.854318,0,0,0.854318,81.4261,4.57297)">
                <g>
                    <g transform="matrix(0.819638,0,0,0.819638,109.518,128.414)">
                        <path d="M538.563,575.585C538.288,575.585 593.241,530.681 604.231,498.023C604.231,663.823 604.859,661.625 604.859,661.625C579.424,609.185 538.837,575.585 538.563,575.585Z" style="fill:rgb(255,184,77);"/>
                    </g>
                    <g transform="matrix(1.17052,0,0,1.17052,-79.4572,-0.0580603)">
                        <path d="M296.499,484.269L296.499,364.136L123.922,364.136L121.943,261.762L394.596,261.762L394.596,438.861C521.131,273.9 530.442,261.762 530.442,261.762L623.044,261.762L716.51,355.228L823.808,262.077L933.525,262.077L933.525,696.65L829.781,696.65L829.781,400.612L714.247,516.145L584.043,385.941C517.5,484.446 483.966,509.596 483.966,509.596C585.615,628.011 621.768,695.602 621.768,695.602L478.202,695.602C403.609,580.281 392.797,563.564 392.797,563.564C366.709,761.621 110.205,737.002 124.726,544.847C157.815,544.847 198.532,544.612 218.147,544.445C218.147,544.445 219.153,570 219.511,579.112C219.63,582.132 220.248,585.112 221.34,587.931C228.983,607.94 247.313,611.007 260.489,611.007C274.812,611.007 296.513,599.937 296.513,584.329L296.513,484.269L296.499,484.269Z" style="fill:white;"/>
                    </g>
                </g>
            </g>
        </g>
    </g>
</svg>
